<svg width="269" height="67" viewBox="0 0 269 67" fill="none" xmlns="http://www.w3.org/2000/svg">
<rect width="76" height="67" rx="6" fill="#F9E6EE"/>
<rect x="97" width="76" height="67" rx="6" fill="#F9E6EE"/>
<rect x="193" width="76" height="67" rx="6" fill="#F9E6EE"/>
<g clip-path="url(#clip0)">
<path d="M54.9658 40.7099C54.8838 42.5696 54.5831 43.8481 54.1523 44.956C53.7078 46.1319 53.0241 47.1847 52.1283 48.06C51.2531 48.9488 50.1933 49.6395 49.031 50.077C47.9167 50.5078 46.6449 50.8085 44.7852 50.8905C42.9116 50.9794 42.3168 51 37.5649 51C32.813 51 32.2182 50.9794 30.3516 50.8974C28.4919 50.8154 27.2134 50.5144 26.1058 50.0839C24.9296 49.6395 23.8768 48.9558 23.0015 48.06C22.1127 47.1847 21.4223 46.125 20.9846 44.9626C20.5538 43.8481 20.253 42.5765 20.171 40.7168C20.0821 38.8433 20.0615 38.2485 20.0615 33.4966C20.0615 28.7447 20.0821 28.1499 20.1641 26.2833C20.2461 24.4236 20.5471 23.1451 20.9779 22.0372C21.4223 20.8612 22.1127 19.8084 23.0015 18.9332C23.8768 18.0443 24.9366 17.3537 26.0989 16.9162C27.2134 16.4854 28.485 16.1847 30.3449 16.1027C32.2113 16.0204 32.8064 16.0001 37.5583 16.0001C42.3102 16.0001 42.905 16.0204 44.7716 16.1027C46.6313 16.1847 47.9098 16.4854 49.0174 16.9162C51.3695 17.8256 53.2292 19.6853 54.1386 22.0372C54.5692 23.1517 54.8702 24.4236 54.9522 26.2833C55.0342 28.1499 55.0547 28.7447 55.0547 33.4966C55.0547 38.2485 55.0478 38.8433 54.9658 40.7099ZM51.814 26.42C51.7387 24.7107 51.4515 23.7877 51.2122 23.1723C50.6241 21.6475 49.414 20.4374 47.8892 19.8493C47.2739 19.61 46.3442 19.3229 44.6415 19.2478C42.7954 19.1656 42.2418 19.1453 37.5719 19.1453C32.902 19.1453 32.3414 19.1656 30.502 19.2478C28.7927 19.3229 27.8696 19.61 27.2543 19.8493C26.4955 20.1297 25.8048 20.5741 25.2442 21.1553C24.6631 21.7229 24.2186 22.4066 23.9382 23.1654C23.6989 23.7807 23.4118 24.7107 23.3367 26.4131C23.2545 28.2591 23.2342 28.813 23.2342 33.483C23.2342 38.1529 23.2545 38.7135 23.3367 40.5526C23.4118 42.2619 23.6989 43.1849 23.9382 43.8003C24.2186 44.5593 24.6631 45.2497 25.2512 45.8106C25.8185 46.3918 26.5022 46.8362 27.2612 47.1164C27.8766 47.3557 28.8066 47.6428 30.5089 47.7181C32.355 47.8001 32.9089 47.8207 37.5786 47.8207C42.2554 47.8207 42.8091 47.8001 44.6485 47.7181C46.3578 47.6428 47.2808 47.3557 47.8962 47.1164C48.6549 46.8362 49.3456 46.3918 49.9062 45.8106C50.4874 45.2431 50.9318 44.5593 51.2122 43.8003C51.4515 43.1849 51.7387 42.2552 51.814 40.5526C51.896 38.7065 51.9165 38.1529 51.9165 33.483C51.9165 28.813 51.896 28.2661 51.814 26.42Z" fill="#FA8C85"/>
<path d="M37.5647 42.4875C32.601 42.4875 28.5737 38.4605 28.5737 33.4965C28.5737 28.5326 32.601 24.5055 37.5647 24.5055C42.5287 24.5055 46.5558 28.5326 46.5558 33.4965C46.5558 38.4605 42.5287 42.4875 37.5647 42.4875ZM37.5647 27.6643C34.3445 27.6643 31.7325 30.2761 31.7325 33.4965C31.7325 36.717 34.3445 39.3288 37.5647 39.3288C40.7852 39.3288 43.397 36.717 43.397 33.4965C43.397 30.2761 40.7852 27.6643 37.5647 27.6643Z" fill="#FA8C85"/>
<path d="M49.0107 42.8431C49.0107 41.684 48.0709 40.7442 46.9115 40.7442C45.7524 40.7442 44.8125 41.684 44.8125 42.8431C44.8125 44.0025 45.7524 44.9421 46.9115 44.9421C48.0709 44.9421 49.0107 44.0025 49.0107 42.8431Z" fill="#FA8C85"/>
</g>
<path d="M140.714 21.9775H144V16.2535C143.433 16.1755 141.483 16 139.212 16C134.474 16 131.229 18.9805 131.229 24.4585V29.5H126V35.899H131.229V52H137.639V35.9005H142.656L143.453 29.5015H137.638V25.093C137.639 23.2435 138.137 21.9775 140.714 21.9775Z" fill="#FA867E"/>
<g clip-path="url(#clip1)">
<path d="M248.991 51V50.9985H249V38.1623C249 31.8827 247.648 27.0454 240.307 27.0454C236.778 27.0454 234.409 28.9821 233.443 30.8181H233.341V27.6317H226.38V50.9985H233.628V39.4281C233.628 36.3817 234.205 33.4358 237.978 33.4358C241.695 33.4358 241.751 36.9125 241.751 39.6235V51H248.991Z" fill="#FA867E"/>
<path d="M214.578 27.6331H221.834V50.9999H214.578V27.6331Z" fill="#FA867E"/>
<path d="M218.203 16C215.883 16 214 17.8827 214 20.2029C214 22.5231 215.883 24.4452 218.203 24.4452C220.523 24.4452 222.406 22.5231 222.406 20.2029C222.404 17.8827 220.522 16 218.203 16V16Z" fill="#FA867E"/>
</g>
<defs>
<clipPath id="clip0">
<rect width="35" height="35" fill="white" transform="matrix(1 0 0 -1 20 51)"/>
</clipPath>
<clipPath id="clip1">
<rect width="35" height="35" fill="white" transform="translate(214 16)"/>
</clipPath>
</defs>
</svg>
