<svg width="147" height="73" viewBox="0 0 147 73" fill="none" xmlns="http://www.w3.org/2000/svg">
<path d="M19.7926 18.8499C19.0487 16.7719 17.9328 15.733 16.3705 15.5103C19.867 14.4714 21.8012 11.9482 21.8012 8.46018C21.8012 3.56218 18.5279 0.890546 12.7253 0.890546H1.93834V27.978H5.06284V16.1782H11.8326C14.4363 16.1782 15.7754 16.7719 16.5937 18.9983L19.9414 27.978H23.2147L19.7926 18.8499ZM5.06284 3.48797H12.4277C16.7425 3.48797 18.6767 5.12064 18.6767 8.46018C18.6767 11.8739 16.5937 13.5808 12.4277 13.5808H5.06284V3.48797Z" fill="#F00F10"/>
<path d="M28.4221 18.3304C28.4221 24.3416 31.993 28.2748 37.4237 28.2748C42.9287 28.2748 46.4996 24.3416 46.4996 18.3304C46.4996 12.3192 42.9287 8.38597 37.4237 8.38597C31.993 8.38597 28.4221 12.3192 28.4221 18.3304ZM43.3751 18.3304C43.3751 23.1542 41.2921 25.6774 37.4237 25.6774C33.6296 25.6774 31.5466 23.1542 31.5466 18.3304C31.5466 13.655 33.704 10.9834 37.4237 10.9834C41.1433 10.9834 43.3751 13.655 43.3751 18.3304Z" fill="#F00F10"/>
<path d="M50.1448 25.7516C52.0046 27.3843 54.534 28.2748 57.8073 28.2748C62.4196 28.2748 65.3209 26.1227 65.3209 22.7831C65.3209 20.1115 63.6099 18.4788 60.0391 17.5883L56.8402 16.7719C54.7572 16.3267 53.8645 15.4361 53.8645 13.8777C53.8645 12.0224 55.4267 10.9092 58.1792 10.9092C60.1878 10.9092 62.122 11.6513 63.9075 13.1355L64.949 10.9092C63.3123 9.27652 60.8574 8.38597 58.1792 8.38597C53.7157 8.38597 50.8144 10.7608 50.8144 14.1003C50.8144 16.6235 52.5998 18.4788 55.7987 19.2209L59.0719 19.9631C61.3781 20.5568 62.3452 21.3731 62.3452 22.8573C62.3452 24.7126 60.783 25.7516 57.9561 25.7516C55.2779 25.7516 53.2693 25.1579 51.1863 23.5252L50.1448 25.7516Z" fill="#F00F10"/>
<path d="M83.9191 12.1708C82.7288 9.796 80.4227 8.38597 77.4469 8.38597C72.3882 8.38597 68.9662 12.4676 68.9662 18.4046C68.9662 24.3416 72.3139 28.2748 77.4469 28.2748C80.4227 28.2748 82.8032 26.939 83.9191 24.49V27.978H86.9692V8.83124H83.9191V12.1708ZM83.9191 18.3304C83.9191 23.0058 81.8361 25.6774 78.0421 25.6774C74.2481 25.6774 72.0907 23.08 72.0907 18.4046C72.0907 13.7292 74.2481 10.9834 78.0421 10.9834C81.8361 10.9834 83.9191 13.5808 83.9191 18.3304Z" fill="#F00F10"/>
<path d="M120.446 12.0966C119.33 9.796 117.024 8.38597 114.048 8.38597C108.915 8.38597 105.567 12.3192 105.567 18.2562C105.567 24.1932 108.989 28.2748 114.048 28.2748C117.024 28.2748 119.404 26.939 120.52 24.49V27.978H123.57V0H120.446V12.0966ZM120.52 18.3304C120.52 23.0058 118.437 25.6774 114.643 25.6774C110.849 25.6774 108.692 22.9315 108.692 18.2562C108.692 13.655 110.849 10.9834 114.643 10.9834C118.437 10.9834 120.52 13.655 120.52 18.3304Z" fill="#F00F10"/>
<path d="M144.4 17.7367C144.4 11.9482 141.35 8.38597 136.292 8.38597C131.01 8.38597 127.29 12.4676 127.29 18.3304C127.29 24.49 130.861 28.2748 136.887 28.2748C139.565 28.2748 142.392 27.2359 144.103 25.6774L143.061 23.451C141.201 24.9353 139.118 25.6774 136.887 25.6774C132.646 25.6774 130.415 23.1542 130.415 18.3304H144.4V17.7367ZM130.489 16.3267C131.084 12.8387 133.093 10.835 136.292 10.835C139.49 10.835 141.35 12.6903 141.648 16.3267H130.489Z" fill="#F00F10"/>
<path d="M4.51316 72.5712V55.42H15.5811C23.6404 55.42 28.4759 51.2394 28.4759 44.3789C28.4759 37.6255 23.7478 33.4449 15.5811 33.4449H0V72.5712H4.51316ZM4.51316 37.1968H15.2588C21.0614 37.1968 23.9627 39.7695 23.9627 44.3789C23.9627 49.0954 21.0614 51.6681 15.2588 51.6681H4.51316V37.1968Z" fill="#F00F10"/>
<path d="M60.7127 57.7783C60.7127 49.417 56.307 44.2717 49 44.2717C41.3706 44.2717 35.9978 50.1674 35.9978 58.6358C35.9978 67.533 41.1557 73 49.8596 73C53.7281 73 57.8114 71.4993 60.2829 69.2482L58.7785 66.0323C56.0921 68.1762 53.0833 69.2482 49.8596 69.2482C43.7346 69.2482 40.511 65.6035 40.511 58.6358H60.7127V57.7783ZM40.6184 55.7416C41.4781 50.7034 44.3794 47.8091 49 47.8091C53.6206 47.8091 56.307 50.489 56.7368 55.7416H40.6184Z" fill="#F00F10"/>
<path d="M87.5768 49.6314C85.9649 46.3084 82.6338 44.2717 78.3355 44.2717C70.9211 44.2717 66.0855 49.953 66.0855 58.5286C66.0855 67.1043 71.0285 73 78.3355 73C82.6338 73 86.0724 71.0705 87.6842 67.533V72.5712H92.0899V32.1586H87.5768V49.6314ZM87.6842 58.6358C87.6842 65.3891 84.6754 69.2482 79.1952 69.2482C73.7149 69.2482 70.5987 65.2819 70.5987 58.5286C70.5987 51.8825 73.7149 48.0235 79.1952 48.0235C84.6754 48.0235 87.6842 51.8825 87.6842 58.6358Z" fill="#F00F10"/>
<path d="M114.441 44.5932C113.689 44.3789 112.829 44.2717 111.969 44.2717C107.993 44.2717 104.662 46.3084 103.265 50.0602L102.836 44.9148H98.6447C98.8596 47.2731 99.0746 49.8458 99.0746 52.7401V72.5712H103.48V56.8135C103.48 54.4552 104.232 52.4185 105.414 50.8106C106.811 49.0954 108.746 48.2379 111.432 48.2379C112.507 48.2379 113.581 48.4523 114.333 48.6667L114.441 44.5932Z" fill="#F00F10"/>
<path d="M142.594 49.7386C140.875 46.3084 137.544 44.2717 133.246 44.2717C125.939 44.2717 120.996 50.1674 120.996 58.743C120.996 67.3186 125.831 73 133.246 73C137.544 73 140.982 71.0705 142.594 67.533V72.5712H147V44.9148H142.594V49.7386ZM142.594 58.6358C142.594 65.3891 139.586 69.2482 134.105 69.2482C128.625 69.2482 125.509 65.4963 125.509 58.743C125.509 51.9897 128.625 48.0235 134.105 48.0235C139.586 48.0235 142.594 51.7753 142.594 58.6358Z" fill="#F00F10"/>
</svg>
